<!-- filepath: /Users/mac/Desktop/car-dealer/public/icons/google.svg -->
<svg xmlns="http://www.w3.org/2000/svg" viewBox="0 0 48 48" width="24px" height="24px">
  <path fill="#4285F4" d="M24 9.5c3.1 0 5.6 1.1 7.5 2.9l5.6-5.6C33.4 3.5 28.9 1.5 24 1.5 14.8 1.5 7.3 7.9 4.9 16.1l6.9 5.3C13.2 14.1 18.1 9.5 24 9.5z"/>
  <path fill="#34A853" d="M46.5 24c0-1.6-.1-3.1-.4-4.5H24v9h12.7c-.6 3.1-2.4 5.7-4.9 7.4l6.9 5.3C42.8 37.1 46.5 31 46.5 24z"/>
  <path fill="#FBBC05" d="M11.8 28.4c-1.5-1.1-2.7-2.5-3.5-4.1l-6.9 5.3C4.7 34.1 9.9 38.5 16 39.9l5.3-6.9C18.1 32.5 14.5 30.7 11.8 28.4z"/>
  <path fill="#EA4335" d="M24 46.5c5.9 0 10.9-2 14.5-5.4l-6.9-5.3c-2 1.3-4.5 2.1-7.6 2.1-5.9 0-10.9-4-12.7-9.4l-6.9 5.3C7.3 40.1 14.8 46.5 24 46.5z"/>
  <path fill="none" d="M0 0h48v48H0z"/>
</svg>